<?xml version="1.0" standalone="no"?>
<!DOCTYPE svg PUBLIC "-//W3C//DTD SVG 20010904//EN"
 "http://www.w3.org/TR/2001/REC-SVG-20010904/DTD/svg10.dtd">
<svg version="1.0" xmlns="http://www.w3.org/2000/svg"
 width="894.000000pt" height="894.000000pt" viewBox="0 0 894.000000 894.000000"
 preserveAspectRatio="xMidYMid meet">
<metadata>
Created by potrace 1.11, written by Peter Selinger 2001-2013
</metadata>
<g transform="translate(0.000000,894.000000) scale(0.100000,-0.100000)"
fill="#000000" stroke="none">
<path d="M4189 8926 c-2 -2 -42 -7 -89 -10 -100 -8 -152 -14 -240 -27 -36 -6
-83 -13 -105 -16 -22 -3 -92 -16 -155 -29 -63 -13 -126 -26 -140 -29 -40 -8
-65 -13 -65 -15 0 -1 -7 -3 -15 -5 -98 -19 -452 -134 -462 -149 -4 -6 -8 -8
-8 -4 0 13 -233 -83 -400 -166 -167 -82 -412 -221 -418 -238 -2 -4 -8 -8 -13
-8 -20 0 -376 -257 -465 -336 -12 -11 -48 -41 -80 -69 -85 -73 -340 -328 -415
-415 -35 -41 -66 -77 -69 -80 -69 -69 -335 -446 -421 -597 -11 -18 -29 -50
-40 -70 -12 -21 -50 -92 -84 -158 -56 -108 -85 -171 -147 -315 -11 -25 -24
-54 -29 -65 -6 -12 -11 -27 -13 -35 -2 -8 -9 -28 -15 -45 -81 -194 -185 -578
-226 -832 -3 -18 -7 -46 -10 -61 -6 -37 -14 -94 -21 -161 -3 -30 -7 -62 -9
-72 -23 -121 -24 -662 -1 -889 6 -51 18 -153 21 -170 1 -8 6 -40 10 -70 4 -30
9 -64 12 -75 2 -11 8 -45 13 -75 6 -30 14 -70 19 -87 5 -18 8 -33 7 -33 -2 0
14 -66 35 -147 21 -82 41 -157 44 -167 11 -44 80 -247 112 -331 86 -222 221
-501 328 -675 32 -52 64 -107 72 -121 7 -15 20 -32 28 -39 8 -7 15 -17 15 -22
0 -7 112 -169 162 -233 40 -52 208 -257 232 -284 167 -184 442 -441 592 -552
32 -24 61 -47 64 -50 15 -18 284 -198 395 -264 118 -70 382 -206 510 -262 216
-95 618 -225 795 -258 14 -3 36 -7 50 -10 47 -11 295 -53 345 -60 211 -26 294
-30 580 -30 288 0 366 4 568 31 23 3 58 7 77 9 19 2 46 6 60 9 14 2 59 10 100
17 41 7 77 13 80 14 14 4 62 15 130 31 247 55 559 160 805 269 147 66 397 197
495 260 223 143 392 260 398 277 2 4 8 8 13 8 5 0 17 8 27 17 10 10 53 46 95
81 42 34 77 67 77 73 0 5 4 8 9 5 14 -9 331 308 450 449 134 158 137 161 163
198 12 18 26 37 30 42 178 225 397 606 536 935 69 163 185 504 207 609 2 9 13
54 24 101 11 47 23 99 26 115 16 81 34 188 40 227 3 24 8 54 10 68 25 167 38
361 39 585 0 177 -9 404 -18 450 -2 11 -7 52 -10 90 -4 39 -8 82 -11 95 -3 14
-7 43 -10 65 -3 22 -7 54 -10 70 -3 17 -7 44 -10 60 -3 17 -7 39 -9 50 -3 11
-14 63 -25 115 -34 153 -116 440 -151 525 -4 11 -18 47 -30 80 -12 33 -28 74
-35 90 -8 17 -23 54 -35 84 -50 128 -230 479 -268 524 -8 9 -12 17 -9 17 14 0
-311 470 -353 510 -3 3 -27 32 -55 65 -127 153 -356 385 -510 516 -257 221
-481 373 -820 561 -201 111 -542 252 -780 323 -49 15 -110 33 -135 41 -25 7
-56 15 -70 18 -14 2 -32 7 -40 10 -8 3 -26 8 -40 10 -14 3 -92 18 -175 35 -82
16 -177 33 -210 36 -33 4 -69 9 -80 11 -11 1 -42 5 -70 8 -27 4 -72 9 -100 12
-54 6 -670 15 -676 10z m596 -1120 c17 -3 59 -8 95 -12 36 -3 74 -8 85 -11 11
-2 38 -6 60 -9 53 -8 216 -42 285 -61 30 -8 64 -16 75 -18 11 -3 59 -18 108
-34 48 -16 87 -28 87 -25 0 3 12 -1 28 -10 15 -8 54 -24 87 -37 116 -43 293
-127 404 -191 46 -26 85 -48 87 -48 16 0 333 -221 383 -267 14 -12 29 -19 34
-16 6 3 7 1 4 -4 -4 -6 4 -18 18 -27 56 -37 272 -247 365 -356 30 -35 65 -75
78 -87 12 -13 22 -26 22 -30 0 -3 14 -22 30 -42 90 -106 222 -309 304 -466 26
-49 51 -94 55 -100 30 -41 149 -344 201 -511 34 -114 32 -106 61 -234 27 -125
26 -118 34 -170 4 -25 9 -54 11 -65 19 -99 36 -332 37 -495 1 -137 -12 -347
-26 -435 -4 -22 -9 -60 -12 -85 -14 -109 -67 -342 -113 -490 -93 -297 -234
-592 -412 -860 -25 -38 -124 -176 -134 -186 -6 -7 -21 -25 -33 -41 -59 -78
-133 -161 -234 -262 -180 -182 -334 -310 -524 -435 -287 -190 -623 -348 -905
-427 -25 -7 -49 -14 -55 -15 -90 -28 -365 -83 -490 -99 -216 -26 -658 -27
-805 -1 -14 3 -47 7 -75 11 -27 3 -59 8 -70 10 -11 3 -36 7 -55 10 -61 9 -92
15 -230 50 -355 88 -707 243 -997 437 -40 26 -74 48 -77 48 -3 0 -14 6 -23 14
-10 8 -71 56 -136 106 -169 131 -348 300 -463 436 -27 33 -55 65 -62 73 -53
56 -312 426 -312 445 0 3 -17 33 -37 68 -21 35 -38 65 -38 68 -1 3 -12 25 -25
50 -37 70 -127 283 -166 395 -123 353 -188 733 -187 1105 0 97 10 311 18 365
2 17 6 48 9 70 3 22 8 51 10 65 3 14 7 43 10 65 9 60 26 146 36 180 5 17 11
41 14 55 10 50 15 70 20 78 3 5 7 20 10 34 10 57 86 277 133 388 29 66 93 205
103 220 5 8 19 35 31 60 12 25 37 69 56 98 18 29 33 54 33 56 0 4 42 69 82
130 37 55 136 190 157 216 9 10 25 29 35 42 262 321 621 619 981 815 89 48
220 112 350 168 94 42 449 150 556 170 13 3 35 7 49 10 14 2 39 7 55 10 17 3
41 7 55 10 14 3 45 7 70 10 25 3 59 8 75 10 17 3 66 8 110 11 44 3 81 7 83 9
5 4 484 -4 517 -9z"/>
<path d="M3147 6973 c-6 -9 -15 -133 -22 -293 -3 -58 -7 -134 -10 -170 -3 -36
-8 -101 -10 -145 -3 -44 -7 -104 -11 -134 -3 -30 -7 -68 -9 -85 -5 -65 -29
-158 -45 -178 -17 -21 -17 -21 -29 13 -15 39 -19 65 -26 134 -7 82 -16 364
-19 612 -1 128 -5 235 -8 238 -6 6 -15 -78 -33 -300 -5 -66 -8 -101 -20 -265
-3 -36 -7 -103 -10 -150 -3 -47 -8 -114 -10 -150 -27 -403 -25 -532 9 -598 10
-20 48 -53 101 -88 91 -60 133 -102 165 -165 27 -52 27 -51 4 -539 -2 -58 -7
-157 -9 -220 -3 -63 -7 -167 -10 -230 -3 -63 -7 -173 -10 -245 -3 -71 -8 -184
-10 -250 -3 -66 -7 -178 -10 -250 -3 -71 -7 -182 -10 -245 -3 -63 -7 -187 -11
-275 -3 -88 -7 -200 -9 -250 -2 -49 -7 -187 -10 -305 -4 -118 -8 -248 -9 -288
-2 -64 1 -79 23 -113 32 -49 92 -78 171 -83 106 -6 220 59 246 139 11 31 10
119 -1 390 -3 88 -8 205 -10 260 -2 55 -7 150 -10 210 -7 125 -10 181 -19 350
-4 66 -9 154 -11 195 -2 41 -7 120 -10 175 -3 55 -7 129 -9 165 -3 36 -7 119
-11 185 -3 66 -8 140 -10 165 -2 25 -6 95 -10 155 -10 177 -13 244 -20 345
-35 538 -36 553 -16 604 17 45 77 109 124 132 55 28 76 54 88 112 8 39 9 236
6 696 -3 352 -8 661 -11 685 -5 43 -25 81 -27 51 0 -8 -2 -24 -4 -35 -7 -33
-15 -124 -30 -320 -7 -87 -14 -173 -20 -245 -3 -30 -7 -82 -10 -115 -3 -33 -7
-76 -10 -95 -2 -19 -7 -54 -10 -78 -10 -83 -26 -132 -45 -132 -9 0 -17 6 -17
13 0 6 -4 26 -8 42 -4 17 -9 219 -10 450 -3 470 -5 525 -15 525 -12 0 -25
-121 -45 -400 -3 -41 -7 -93 -9 -115 -2 -22 -7 -80 -11 -129 -4 -50 -8 -97
-10 -105 -1 -9 -6 -50 -10 -90 -8 -81 -31 -181 -45 -195 -12 -12 -30 2 -30 23
0 10 -3 21 -6 24 -15 15 -27 212 -40 677 -10 350 -8 318 -17 303z"/>
<path d="M4159 6951 l-30 -30 2 -2423 c1 -1665 5 -2429 12 -2443 15 -29 28
-40 78 -66 55 -28 167 -32 214 -7 77 41 133 116 130 173 -3 57 -15 213 -20
260 -2 22 -6 81 -10 130 -3 50 -8 106 -10 125 -4 36 -12 132 -20 235 -3 33 -7
89 -10 125 -8 107 -15 201 -20 270 -3 36 -7 92 -10 125 -3 33 -7 90 -10 128
-3 37 -7 95 -10 130 -2 34 -7 100 -10 147 -3 47 -7 108 -9 135 -3 28 -7 91
-11 140 -3 50 -8 117 -11 150 -12 160 -17 272 -18 400 -1 123 2 149 23 213 18
55 32 80 56 98 18 13 37 24 44 24 7 0 23 11 36 25 14 13 25 21 25 18 0 -14 33
25 52 60 31 61 42 130 42 257 -1 94 -14 299 -28 405 -2 22 -7 67 -11 100 -4
33 -8 74 -10 90 -2 17 -7 49 -10 73 -3 23 -7 61 -10 85 -5 38 -17 110 -30 177
-4 20 -31 131 -49 200 -2 8 -7 27 -11 43 -4 15 -11 27 -17 27 -5 0 -7 4 -4 9
14 22 -115 299 -165 356 -61 69 -115 81 -160 36z"/>
<path d="M5411 6944 c-145 -38 -252 -139 -336 -317 -56 -117 -89 -258 -88
-377 1 -225 56 -375 232 -623 42 -59 81 -116 86 -125 6 -9 12 -19 15 -22 18
-16 70 -146 76 -191 14 -95 8 -515 -11 -754 -2 -27 -7 -90 -10 -140 -3 -49 -8
-106 -10 -125 -2 -19 -6 -75 -10 -125 -3 -49 -8 -106 -10 -125 -2 -19 -7 -73
-10 -120 -4 -47 -8 -101 -10 -120 -2 -19 -7 -73 -10 -120 -4 -47 -8 -101 -10
-120 -2 -19 -7 -80 -10 -135 -4 -55 -8 -116 -10 -135 -2 -19 -6 -71 -10 -115
-3 -44 -8 -111 -11 -150 -3 -38 -7 -97 -9 -130 -2 -33 -6 -94 -9 -135 -15
-214 -26 -409 -31 -542 l-3 -98 36 -31 c127 -112 329 -111 387 2 16 29 20 247
10 544 -6 221 -16 499 -20 600 -44 1055 -51 1821 -19 2060 10 76 35 116 192
300 10 11 31 38 47 60 16 22 32 42 35 45 28 25 157 250 143 250 -4 0 -3 4 3 8
10 7 40 103 52 167 7 39 6 179 -2 230 -36 224 -106 379 -219 488 -93 90 -182
128 -312 132 -45 2 -104 -3 -134 -11z"/>
</g>
</svg>
